<svg id="Layer_1" data-name="Layer 1" xmlns="http://www.w3.org/2000/svg" viewBox="0 0 200 200"><title>Artboard 1</title><path d="M116.56,52.61a2,2,0,0,0-1.42-.59H88.86a2,2,0,0,0-1.41,3.42L100,68l15.39,15.39a2,2,0,0,0,1.41.58h13.14a2,2,0,0,0,2-2V68.82a2,2,0,0,0-.58-1.42Z"/><path d="M74.63,61.42l-6,6a2,2,0,0,0-.58,1.42V83.13a2,2,0,0,0,.58,1.42L100,115.91l22.54,22.54a2,2,0,0,0,2.83,0l6-6a2,2,0,0,0,.58-1.42V116.74a2,2,0,0,0-.58-1.42L116,99.94,77.46,61.42A2,2,0,0,0,74.63,61.42Z"/><path d="M83.2,115.91H70.06a2,2,0,0,0-2,2v13.14a2,2,0,0,0,.58,1.42l14.8,14.8a2,2,0,0,0,1.42.58H100l11.24.13a2,2,0,0,0,1.44-3.42L100,131.88,84.61,116.49A2,2,0,0,0,83.2,115.91Z"/></svg>