<svg width="486.77744140625px" height="140.01999511718748px" xmlns="http://www.w3.org/2000/svg" viewBox="6.611279296875011 4.990002441406261 486.77744140625 140.01999511718748" style="background: rgb(29, 63, 114);" preserveAspectRatio="xMidYMid"><defs><linearGradient id="editing-outline-gradient" x1="-0.41354545764260087" x2="1.4135454576426008" y1="0.09326335692419985" y2="0.9067366430758002"><stop offset="0" stop-color="#5699d2"></stop><stop offset="1" stop-color="#d8ebf9"></stop></linearGradient><filter id="editing-outline" x="-100%" y="-100%" width="300%" height="300%"><feMorphology in="SourceGraphic" operator="dilate" radius="1" result="outline"></feMorphology><feComposite operator="out" in="outline" in2="SourceAlpha"></feComposite></filter></defs><g filter="url(#editing-outline)"><g transform="translate(78.70000672340393, 105.12437438964844)"><path d="M14.52 0.48L14.52 0.48Q7.50 0.48 4.38-3L4.38-3L4.38-3Q1.26-6.48 1.26-14.22L1.26-14.22L1.26-19.26L11.40-19.26L11.40-12.84L11.40-12.84Q11.40-9 13.86-9L13.86-9L13.86-9Q15.24-9 15.78-9.81L15.78-9.81L15.78-9.81Q16.32-10.62 16.32-12.54L16.32-12.54L16.32-12.54Q16.32-15.06 15.72-16.71L15.72-16.71L15.72-16.71Q15.12-18.36 14.19-19.47L14.19-19.47L14.19-19.47Q13.26-20.58 10.86-22.92L10.86-22.92L6.42-27.36L6.42-27.36Q1.26-32.40 1.26-38.52L1.26-38.52L1.26-38.52Q1.26-45.12 4.29-48.57L4.29-48.57L4.29-48.57Q7.32-52.02 13.14-52.02L13.14-52.02L13.14-52.02Q20.10-52.02 23.16-48.33L23.16-48.33L23.16-48.33Q26.22-44.64 26.22-36.78L26.22-36.78L15.72-36.78L15.66-40.32L15.66-40.32Q15.66-41.34 15.09-41.94L15.09-41.94L15.09-41.94Q14.52-42.54 13.50-42.54L13.50-42.54L13.50-42.54Q12.30-42.54 11.70-41.88L11.70-41.88L11.70-41.88Q11.10-41.22 11.10-40.08L11.10-40.08L11.10-40.08Q11.10-37.56 13.98-34.86L13.98-34.86L19.98-29.10L19.98-29.10Q22.08-27.06 23.46-25.23L23.46-25.23L23.46-25.23Q24.84-23.40 25.68-20.91L25.68-20.91L25.68-20.91Q26.52-18.42 26.52-15L26.52-15L26.52-15Q26.52-7.38 23.73-3.45L23.73-3.45L23.73-3.45Q20.94 0.48 14.52 0.48L14.52 0.48ZM29.76 0L29.76-43.92L40.02-43.92L40.02-38.82L40.02-38.82Q40.74-41.64 42.48-43.02L42.48-43.02L42.48-43.02Q44.22-44.40 47.40-44.40L47.40-44.40L47.40-44.40Q49.98-44.40 51.87-43.23L51.87-43.23L51.87-43.23Q53.76-42.06 54.54-40.02L54.54-40.02L54.54-40.02Q55.86-42.30 57.48-43.35L57.48-43.35L57.48-43.35Q59.10-44.40 61.98-44.40L61.98-44.40L61.98-44.40Q67.14-44.40 69.15-41.25L69.15-41.25L69.15-41.25Q71.16-38.10 71.16-32.10L71.16-32.10L71.04 0L60.48 0L60.48-32.28L60.48-32.28Q60.48-36.54 58.32-36.54L58.32-36.54L58.32-36.54Q56.82-36.54 56.16-35.07L56.16-35.07L56.16-35.07Q55.50-33.60 55.50-31.56L55.50-31.56L55.50 0L45 0L45-32.28L45-32.28Q45-34.14 44.61-35.28L44.61-35.28L44.61-35.28Q44.22-36.42 42.96-36.42L42.96-36.42L42.96-36.42Q41.34-36.42 40.68-34.83L40.68-34.83L40.68-34.83Q40.02-33.24 40.02-31.02L40.02-31.02L40.02 0L29.76 0ZM83.22 0.48L83.22 0.48Q78.12 0.48 76.23-2.91L76.23-2.91L76.23-2.91Q74.34-6.30 74.34-12.60L74.34-12.60L74.34-12.60Q74.34-17.76 75.69-20.52L75.69-20.52L75.69-20.52Q77.04-23.28 79.44-24.57L79.44-24.57L79.44-24.57Q81.84-25.86 86.76-27.42L86.76-27.42L89.64-28.38L89.64-28.50L89.64-32.88L89.64-32.88Q89.64-34.62 88.95-35.55L88.95-35.55L88.95-35.55Q88.26-36.48 87.30-36.48L87.30-36.48L87.30-36.48Q86.46-36.48 85.83-35.70L85.83-35.70L85.83-35.70Q85.20-34.92 85.20-33.60L85.20-33.60L85.20-30.96L75-30.96L75-32.40L75-32.40Q75-38.88 78.03-41.64L78.03-41.64L78.03-41.64Q81.06-44.40 87.90-44.40L87.90-44.40L87.90-44.40Q93.36-44.40 96.78-41.55L96.78-41.55L96.78-41.55Q100.20-38.70 100.20-33.48L100.20-33.48L100.20 0L89.76 0L89.76-5.22L89.76-5.22Q88.98-2.52 87.27-1.02L87.27-1.02L87.27-1.02Q85.56 0.48 83.22 0.48L83.22 0.48ZM87.36-7.68L87.36-7.68Q88.56-7.68 89.07-8.67L89.07-8.67L89.07-8.67Q89.58-9.66 89.58-11.10L89.58-11.10L89.58-23.34L89.58-23.34Q87.24-22.44 86.13-21.06L86.13-21.06L86.13-21.06Q85.02-19.68 85.02-17.22L85.02-17.22L85.02-11.58L85.02-11.58Q85.02-7.68 87.36-7.68L87.36-7.68ZM104.22 0L104.22-43.92L114.72-43.92L114.72-39.06L114.72-39.06Q115.50-41.64 117.45-43.05L117.45-43.05L117.45-43.05Q119.40-44.46 122.28-44.46L122.28-44.46L122.28-35.70L122.28-35.70Q120.06-35.70 117.39-35.07L117.39-35.07L117.39-35.07Q114.72-34.44 114.72-33.60L114.72-33.60L114.72 0L104.22 0ZM133.92 0.48L133.92 0.48Q129.78 0.48 128.22-1.26L128.22-1.26L128.22-1.26Q126.66-3 126.66-6.84L126.66-6.84L126.66-34.26L123.72-34.26L123.72-42.24L126.66-42.24L126.66-51.54L136.86-51.54L136.86-42.24L139.86-42.24L139.86-34.26L136.86-34.26L136.86-9.60L136.86-9.60Q136.86-8.46 137.04-7.92L137.04-7.92L137.04-7.92Q137.22-7.38 138-7.38L138-7.38L138-7.38Q138.60-7.38 139.14-7.44L139.14-7.44L139.14-7.44Q139.68-7.50 139.86-7.50L139.86-7.50L139.86-0.30L139.86-0.30Q138.96-0.06 137.25 0.21L137.25 0.21L137.25 0.21Q135.54 0.48 133.92 0.48L133.92 0.48ZM155.58 0.48L155.58 0.48Q148.56 0.48 145.44-3L145.44-3L145.44-3Q142.32-6.48 142.32-14.22L142.32-14.22L142.32-19.26L152.46-19.26L152.46-12.84L152.46-12.84Q152.46-9 154.92-9L154.92-9L154.92-9Q156.30-9 156.84-9.81L156.84-9.81L156.84-9.81Q157.38-10.62 157.38-12.54L157.38-12.54L157.38-12.54Q157.38-15.06 156.78-16.71L156.78-16.71L156.78-16.71Q156.18-18.36 155.25-19.47L155.25-19.47L155.25-19.47Q154.32-20.58 151.92-22.92L151.92-22.92L147.48-27.36L147.48-27.36Q142.32-32.40 142.32-38.52L142.32-38.52L142.32-38.52Q142.32-45.12 145.35-48.57L145.35-48.57L145.35-48.57Q148.38-52.02 154.20-52.02L154.20-52.02L154.20-52.02Q161.16-52.02 164.22-48.33L164.22-48.33L164.22-48.33Q167.28-44.64 167.28-36.78L167.28-36.78L156.78-36.78L156.72-40.32L156.72-40.32Q156.72-41.34 156.15-41.94L156.15-41.94L156.15-41.94Q155.58-42.54 154.56-42.54L154.56-42.54L154.56-42.54Q153.36-42.54 152.76-41.88L152.76-41.88L152.76-41.88Q152.16-41.22 152.16-40.08L152.16-40.08L152.16-40.08Q152.16-37.56 155.04-34.86L155.04-34.86L161.04-29.10L161.04-29.10Q163.14-27.06 164.52-25.23L164.52-25.23L164.52-25.23Q165.90-23.40 166.74-20.91L166.74-20.91L166.74-20.91Q167.58-18.42 167.58-15L167.58-15L167.58-15Q167.58-7.38 164.79-3.45L164.79-3.45L164.79-3.45Q162 0.48 155.58 0.48L155.58 0.48ZM170.82 8.76L170.82-43.92L181.50-43.92L181.50-41.58L181.50-41.58Q183.78-44.40 187.80-44.40L187.80-44.40L187.80-44.40Q192.90-44.40 194.91-40.98L194.91-40.98L194.91-40.98Q196.92-37.56 196.92-31.50L196.92-31.50L196.92-15.24L196.92-15.24Q196.92-10.08 196.32-6.81L196.32-6.81L196.32-6.81Q195.72-3.54 193.68-1.53L193.68-1.53L193.68-1.53Q191.64 0.48 187.50 0.48L187.50 0.48L187.50 0.48Q183.54 0.48 181.50-1.74L181.50-1.74L181.50 8.76L170.82 8.76ZM184.02-7.68L184.02-7.68Q185.46-7.68 185.88-9L185.88-9L185.88-9Q186.30-10.32 186.30-12.84L186.30-12.84L186.30-31.50L186.30-31.50Q186.30-33.78 185.88-34.98L185.88-34.98L185.88-34.98Q185.46-36.18 183.96-36.18L183.96-36.18L183.96-36.18Q181.50-36.18 181.50-31.62L181.50-31.62L181.50-12.36L181.50-12.36Q181.50-10.14 182.01-8.91L182.01-8.91L182.01-8.91Q182.52-7.68 184.02-7.68L184.02-7.68ZM208.80 0.48L208.80 0.48Q203.70 0.48 201.81-2.91L201.81-2.91L201.81-2.91Q199.92-6.30 199.92-12.60L199.92-12.60L199.92-12.60Q199.92-17.76 201.27-20.52L201.27-20.52L201.27-20.52Q202.62-23.28 205.02-24.57L205.02-24.57L205.02-24.57Q207.42-25.86 212.34-27.42L212.34-27.42L215.22-28.38L215.22-28.50L215.22-32.88L215.22-32.88Q215.22-34.62 214.53-35.55L214.53-35.55L214.53-35.55Q213.84-36.48 212.88-36.48L212.88-36.48L212.88-36.48Q212.04-36.48 211.41-35.70L211.41-35.70L211.41-35.70Q210.78-34.92 210.78-33.60L210.78-33.60L210.78-30.96L200.58-30.96L200.58-32.40L200.58-32.40Q200.58-38.88 203.61-41.64L203.61-41.64L203.61-41.64Q206.64-44.40 213.48-44.40L213.48-44.40L213.48-44.40Q218.94-44.40 222.36-41.55L222.36-41.55L222.36-41.55Q225.78-38.70 225.78-33.48L225.78-33.48L225.78 0L215.34 0L215.34-5.22L215.34-5.22Q214.56-2.52 212.85-1.02L212.85-1.02L212.85-1.02Q211.14 0.48 208.80 0.48L208.80 0.48ZM212.94-7.68L212.94-7.68Q214.14-7.68 214.65-8.67L214.65-8.67L214.65-8.67Q215.16-9.66 215.16-11.10L215.16-11.10L215.16-23.34L215.16-23.34Q212.82-22.44 211.71-21.06L211.71-21.06L211.71-21.06Q210.60-19.68 210.60-17.22L210.60-17.22L210.60-11.58L210.60-11.58Q210.60-7.68 212.94-7.68L212.94-7.68ZM243 0.48L243 0.48Q235.80 0.48 232.62-3.18L232.62-3.18L232.62-3.18Q229.44-6.84 229.44-14.40L229.44-14.40L229.44-27.96L229.44-27.96Q229.44-33.66 230.67-37.23L230.67-37.23L230.67-37.23Q231.90-40.80 234.81-42.60L234.81-42.60L234.81-42.60Q237.72-44.40 242.88-44.40L242.88-44.40L242.88-44.40Q248.52-44.40 252.06-41.46L252.06-41.46L252.06-41.46Q255.60-38.52 255.60-33.24L255.60-33.24L255.60-26.52L244.92-26.52L244.92-32.70L244.92-32.70Q244.92-34.44 244.44-35.37L244.44-35.37L244.44-35.37Q243.96-36.30 242.58-36.30L242.58-36.30L242.58-36.30Q240-36.30 240-32.64L240-32.64L240-11.34L240-11.34Q240-9.84 240.63-8.79L240.63-8.79L240.63-8.79Q241.26-7.74 242.52-7.74L242.52-7.74L242.52-7.74Q243.78-7.74 244.41-8.76L244.41-8.76L244.41-8.76Q245.04-9.78 244.98-11.40L244.98-11.40L244.92-18.78L255.60-18.78L255.60-11.10L255.60-11.10Q255.60-5.70 252.09-2.61L252.09-2.61L252.09-2.61Q248.58 0.48 243 0.48L243 0.48ZM271.56 0.48L271.56 0.48Q264.78 0.48 261.84-3.24L261.84-3.24L261.84-3.24Q258.90-6.96 258.90-14.34L258.90-14.34L258.90-31.98L258.90-31.98Q258.90-38.04 262.38-41.22L262.38-41.22L262.38-41.22Q265.86-44.40 272.10-44.40L272.10-44.40L272.10-44.40Q284.76-44.40 284.76-31.98L284.76-31.98L284.76-28.80L284.76-28.80Q284.76-24 284.64-21L284.64-21L269.40-21L269.40-12.48L269.40-12.48Q269.40-10.20 269.88-8.91L269.88-8.91L269.88-8.91Q270.36-7.62 271.92-7.62L271.92-7.62L271.92-7.62Q273.12-7.62 273.63-8.34L273.63-8.34L273.63-8.34Q274.14-9.06 274.23-9.99L274.23-9.99L274.23-9.99Q274.32-10.92 274.32-12.72L274.32-12.72L274.32-16.98L284.76-16.98L284.76-14.46L284.76-14.46Q284.76-6.78 281.79-3.15L281.79-3.15L281.79-3.15Q278.82 0.48 271.56 0.48L271.56 0.48ZM269.34-26.22L274.32-26.22L274.32-31.86L274.32-31.86Q274.32-36.60 271.98-36.60L271.98-36.60L271.98-36.60Q269.34-36.60 269.34-31.86L269.34-31.86L269.34-26.22ZM311.40 0L301.38 0L306.36-51.54L323.82-51.54L328.74 0L318.96 0L318.24-8.34L312.00-8.34L311.40 0ZM314.70-42.78L312.78-16.56L317.46-16.56L315.18-42.78L314.70-42.78ZM341.34 0L331.38 0L331.38-51.54L341.34-51.54L341.34 0Z" fill="url(#editing-outline-gradient)"></path></g></g><style>text {
  font-size: 64px;
  font-family: Arial Black;
  dominant-baseline: central;
  text-anchor: middle;
}</style></svg>