<svg id="Layer_1" data-name="Layer 1" xmlns="http://www.w3.org/2000/svg" viewBox="0 0 413 200"><title>Artboard 4 copy</title><path d="M80.61,71.81a1.19,1.19,0,0,0-.84-.35H64.14a1.2,1.2,0,0,0-.84,2L70.76,81l9.15,9.15a1.19,1.19,0,0,0,.85.35h7.81a1.19,1.19,0,0,0,1.19-1.19V81.46a1.19,1.19,0,0,0-.35-.85Z"/><path d="M55.67,77.05l-3.56,3.56a1.23,1.23,0,0,0-.35.85V90a1.21,1.21,0,0,0,.35.84l18.65,18.65,13.41,13.41a1.21,1.21,0,0,0,1.69,0l3.55-3.56a1.16,1.16,0,0,0,.35-.84V110a1.19,1.19,0,0,0-.35-.85L80.26,100,57.36,77.05A1.21,1.21,0,0,0,55.67,77.05Z"/><path d="M60.77,109.46H53a1.2,1.2,0,0,0-1.19,1.19v7.82a1.21,1.21,0,0,0,.35.84l8.8,8.8a1.19,1.19,0,0,0,.85.35h9l6.69.08a1.2,1.2,0,0,0,.86-2L70.76,119l-9.15-9.15A1.19,1.19,0,0,0,60.77,109.46Z"/><path d="M124.2,100.45l-3.5-.81c-3.9-.88-4.59-1.93-4.59-3.8,0-2.26,1.74-3.36,5.31-3.36s5.49,1.29,5.83,4.2l0,.22h4.07l0-.28c-.51-5.13-4-8-9.9-8S112,91.51,112,96.1c0,4,2.19,6.08,7.56,7.35l3.49.77c4.14,1,4.89,2.06,4.89,3.84,0,2.61-1.94,3.88-5.93,3.88-4.28,0-6.46-1.59-6.68-4.85v-.24h-4.07v.27c.3,5.56,4.11,8.63,10.75,8.63,6.26,0,10-2.93,10-7.84C132.05,103.93,129.78,101.76,124.2,100.45Z"/><path d="M155.81,96.36A6.66,6.66,0,0,0,150,99.3c-1.05-2-2.81-2.94-5.37-2.94a6,6,0,0,0-5.05,2.28V96.77h-3.78v18.57h3.92v-9.56c0-4,1.33-5.79,4.17-5.79,2.28,0,3.21,1.24,3.21,4.28v11.07H151v-9.56c0-3.9,1.36-5.79,4.17-5.79,2.31,0,3.21,1.2,3.21,4.28v11.07h3.92V104.05C162.32,98.88,160.19,96.36,155.81,96.36Z"/><path d="M174.34,96.36c-4.5,0-7.48,2.35-7.77,6.12l0,.27h3.92l0-.21c.27-1.92,1.4-2.73,3.76-2.73,2.54,0,3.58,1,3.58,3.54v.45l-4.62.81c-3.5.62-7.09,1.78-7.09,5.81,0,3.39,2.27,5.33,6.22,5.33a6.41,6.41,0,0,0,5.6-2.42v2h3.82V103.9C181.77,98.76,179.41,96.36,174.34,96.36Zm3.5,10.71v1.14c0,2.35-2,4.13-4.65,4.13-2.81,0-3.17-1.12-3.17-2.11,0-1.71,1.56-2.07,4.32-2.55Z"/><path d="M194.88,96.58a5.17,5.17,0,0,0-4.53,2.5V96.77h-3.78v18.57h3.92v-8.86c0-4.12,1.4-6.12,4.28-6.12a7.66,7.66,0,0,1,1.29.11l.29,0V96.79l-.18-.05A5.06,5.06,0,0,0,194.88,96.58Z"/><path d="M204.23,91.46H200.3v5.31h-2.61v3.59h2.61V110.6c0,3.39,1.69,5,5.15,5a11.33,11.33,0,0,0,2.49-.3l.19,0v-3.52l-.3.06a7,7,0,0,1-1.53.18c-1.76,0-2.07-.69-2.07-2.14v-9.51h3.9V96.77h-3.9Z"/><path d="M232.83,100.45l-3.5-.81c-3.91-.88-4.59-1.93-4.59-3.8,0-2.26,1.73-3.36,5.31-3.36s5.49,1.29,5.82,4.2l0,.22H240l0-.28c-.5-5.13-4-8-9.89-8s-9.39,2.84-9.39,7.43c0,4,2.19,6.08,7.57,7.35l3.49.77c4.13,1,4.89,2.06,4.89,3.84,0,2.61-1.94,3.88-5.94,3.88-4.27,0-6.46-1.59-6.67-4.85v-.24h-4.08l0,.27c.29,5.56,4.11,8.63,10.74,8.63,6.27,0,10-2.93,10-7.84C240.68,103.93,238.41,101.76,232.83,100.45Z"/><path d="M253.61,96.36a6.84,6.84,0,0,0-5.42,2.33V96.77h-3.77v26.56h3.92v-9.79a6.65,6.65,0,0,0,5.27,2.21c4.95,0,8.28-3.9,8.28-9.71S258.64,96.36,253.61,96.36Zm-.48,3.59c3.14,0,4.87,2.16,4.87,6.09s-1.73,6.12-4.87,6.12-4.86-2.18-4.86-6.12S250,100,253.13,100Z"/><path d="M272.83,96.36c-4.49,0-7.47,2.35-7.76,6.12l0,.27H269l0-.21c.28-1.92,1.4-2.73,3.77-2.73,2.54,0,3.58,1,3.58,3.54v.45l-4.62.81c-3.5.62-7.09,1.78-7.09,5.81,0,3.39,2.27,5.33,6.22,5.33a6.41,6.41,0,0,0,5.6-2.42v2h3.81V103.9C280.26,98.76,277.9,96.36,272.83,96.36Zm3.51,10.71v1.14c0,2.35-2,4.13-4.65,4.13-2.81,0-3.17-1.12-3.17-2.11,0-1.71,1.56-2.07,4.32-2.55Z"/><path d="M296.75,109a4,4,0,0,1-4.25,3.21c-3.07,0-4.83-2.23-4.83-6.12s1.71-6.09,4.83-6.09a4.1,4.1,0,0,1,4.22,3l0,.16h4l-.06-.3a7.94,7.94,0,0,0-8.2-6.42c-5.3,0-8.72,3.8-8.72,9.68s3.42,9.71,8.72,9.71a8,8,0,0,0,8.23-6.68l.06-.3h-4Z"/><path d="M315.69,109.73c-.75,1.78-1.92,2.5-4,2.5-2.95,0-4.69-1.87-4.93-5.28h12.87v-1.47c0-5.45-3.31-9.12-8.24-9.12-6,0-8.64,4.86-8.64,9.68,0,5.81,3.59,9.71,8.94,9.71a8,8,0,0,0,8-5.84l.11-.33h-4.05Zm-8.83-5.86c.5-2.66,2-4.06,4.49-4.06s3.88,1.36,4.15,4.06Z"/><path d="M344.63,89.07h-3.92L330.93,115l-.13.33H335l2.5-6.92h10.22l2.54,6.92h4.25l-9.84-26.11Zm1.75,15.61h-7.5l3.73-10.32Z"/><rect x="357.17" y="89.07" width="4.07" height="26.27"/></svg>